<svg width="40" height="40" xmlns="http://www.w3.org/2000/svg">
 <g>
  <g>
   <path d="m10.87268,37.72316l-2.81654,-2.23514l0.1292,-29.97416l3.10077,-2.19638l14.47028,0l8.39793,9.43152l0.64599,22.22222l-2.84238,2.84238" fill="#fff4b4"/>
   <g>
    <path d="m12.10397,2.44401l13.74025,0c0.37568,0 0.70889,0.17992 0.91904,0.45916l8.62976,9.33649c0.20223,0.2195 0.30299,0.49802 0.30299,0.77582l0.00648,21.13503c0,1.40123 -0.57719,2.67939 -1.50414,3.60851l-0.00648,0.00576c-0.9284,0.92624 -2.20656,1.50271 -3.60635,1.50271l-18.48155,0c-1.40627,0 -2.68659,-0.57647 -3.61427,-1.50414c-0.92624,-0.92624 -1.50271,-2.20656 -1.50271,-3.61283l0,-26.58954c0,-1.40771 0.57575,-2.68803 1.50199,-3.61499c0.92696,-0.92624 2.20728,-1.50199 3.61499,-1.50199l0,0.00001zm14.39229,3.53654l0,3.90142c0.07701,0.97805 0.41526,1.74308 1.00684,2.2483c0.62109,0.53041 1.55812,0.82908 2.80318,0.85139l2.6578,-0.0036l-6.46782,-6.99751zm6.90971,9.29187l-3.11696,-0.0036c-1.81361,-0.02879 -3.24435,-0.51817 -4.27422,-1.39835c-1.07305,-0.91832 -1.67975,-2.21735 -1.80425,-3.82225l-0.0108,-0.15977l0,-5.14792l-12.09577,0c-0.7751,0 -1.48111,0.3181 -1.99209,0.82836c-0.51026,0.51098 -0.82836,1.21699 -0.82836,1.99209l0,26.58954c0,0.77438 0.31882,1.47968 0.82908,1.98993c0.5117,0.51242 1.21771,0.8298 1.99137,0.8298l18.48155,0c0.77582,0 1.48111,-0.31666 1.98993,-0.8262c0.51314,-0.51242 0.83052,-1.21843 0.83052,-1.99353l0,-18.8781z" fill-rule="nonzero"/>
   </g>
  </g>
  <g>
    <text stroke="black" x="0.31785" y="35" fill="#FF5555" stroke-width="1" font-size="20" font-family="sans-serif" text-anchor="start" xml:space="preserve" font-weight="bold" font-style="normal">A</text>
    <text x="10" y="26" fill="#FF5555" stroke-width="1" font-size="20" font-family="sans-serif" text-anchor="start" xml:space="preserve" font-weight="bold" font-style="normal" stroke="black">S</text>
    <text stroke="black" x="22.33854" y="35" fill="#FF5555" stroke-width="1" font-size="20" font-family="sans-serif" text-anchor="start" xml:space="preserve" font-weight="bold" font-style="normal">M</text>
  </g>
 </g>

</svg>